<svg width="57" height="57" viewBox="0 0 57 57" fill="none" xmlns="http://www.w3.org/2000/svg">
<rect width="56.0301" height="56.0326" rx="28.0151" fill="#141B4D"/>
<path d="M34.0297 24.5003C34.0297 25.1633 33.7663 25.7992 33.2975 26.268C32.8287 26.7369 32.1928 27.0003 31.5297 27.0003C30.8667 27.0003 30.2308 26.7369 29.762 26.268C29.2931 25.7992 29.0297 25.1633 29.0297 24.5003C29.0297 23.8372 29.2931 23.2013 29.762 22.7325C30.2308 22.2637 30.8667 22.0003 31.5297 22.0003C32.1928 22.0003 32.8287 22.2637 33.2975 22.7325C33.7663 23.2013 34.0297 23.8372 34.0297 24.5003ZM34.0237 31.3663C33.9688 32.9551 33.5721 34.5135 32.8607 35.9353C32.2053 37.1748 31.2211 38.2099 30.0161 38.927C28.8111 39.6441 27.4319 40.0154 26.0297 40.0003H25.0297V34.5003C25.0253 33.5734 24.6551 32.6857 23.9997 32.0303C23.3443 31.3749 22.4566 31.0047 21.5297 31.0003H16.0297V30.0003C16.0146 28.5981 16.3859 27.2189 17.103 26.0139C17.8201 24.809 18.8552 23.8247 20.0947 23.1693C21.5165 22.4579 23.0749 22.0612 24.6637 22.0063C26.1206 20.1245 27.9915 18.6038 30.1312 17.5622C32.271 16.5206 34.622 15.9861 37.0017 16.0003C37.3977 15.9978 37.7903 16.0735 38.157 16.223C38.5237 16.3725 38.8572 16.593 39.1385 16.8717C39.4198 17.1504 39.6434 17.4819 39.7963 17.8471C39.9492 18.2124 40.0286 18.6043 40.0297 19.0003C40.0467 21.3845 39.5136 23.7405 38.472 25.8852C37.4303 28.0299 35.9081 29.9055 34.0237 31.3663ZM18.1137 29.0003H20.3757C21.1184 27.3463 21.9908 25.7536 22.9847 24.2373C22.2944 24.3979 21.6254 24.6396 20.9917 24.9573C20.2297 25.3597 19.5724 25.935 19.0727 26.637C18.5729 27.3391 18.2445 28.1485 18.1137 29.0003ZM31.7927 33.0453C30.2764 34.0392 28.6838 34.9116 27.0297 35.6543V37.9163C27.8815 37.7855 28.6909 37.4571 29.393 36.9573C30.095 36.4576 30.6703 35.8003 31.0727 35.0383C31.3904 34.4046 31.6321 33.7357 31.7927 33.0453ZM38.0297 18.9723C38.0224 18.7119 37.9139 18.4647 37.7271 18.2832C37.5404 18.1017 37.2902 18.0002 37.0297 18.0003C31.8697 18.1473 28.3797 20.1243 25.0117 24.8223C24.0719 26.1755 23.2454 27.604 22.5407 29.0933C23.6327 29.2966 24.6374 29.8258 25.4228 30.6112C26.2082 31.3966 26.7374 32.4014 26.9407 33.4933C28.43 32.7886 29.8585 31.9621 31.2117 31.0223C35.9057 27.6503 37.8827 24.1603 38.0297 18.9723Z" fill="#F2F7FF"/>
<path d="M23.0262 36.0006C23.0262 35.2063 22.7128 34.4441 22.154 33.8796C21.5825 33.334 20.8228 33.0295 20.0327 33.0293C19.2426 33.0291 18.4827 33.3333 17.911 33.8786C17.005 34.7856 16.447 37.5006 16.247 38.6266L16 40.0326L17.406 39.7856C18.532 39.5866 21.247 39.0276 22.154 38.1216C22.7128 37.5571 23.0262 36.7949 23.0262 36.0006Z" fill="#20DC33"/>
<path d="M20.9556 35.6174C21.0059 35.7388 21.0316 35.8689 21.0313 36.0003C21.0316 36.1314 21.006 36.2613 20.9559 36.3825C20.9057 36.5037 20.8321 36.6137 20.7393 36.7063C20.0506 37.0876 19.3051 37.3557 18.5312 37.5003C18.6752 36.7268 18.943 35.9815 19.3243 35.2933C19.5118 35.1058 19.7661 35.0005 20.0313 35.0005C20.2964 35.0005 20.5507 35.1058 20.7382 35.2933C20.8314 35.3859 20.9053 35.4961 20.9556 35.6174Z" fill="#F5F6FB"/>
</svg>
