<svg width="44" height="43" viewBox="0 0 44 43" fill="none" xmlns="http://www.w3.org/2000/svg">
<g filter="url(#filter0_d_132_1835)">
<path d="M30.3335 33.3332H38.6668V29.9998C38.6668 28.9607 38.3429 27.9475 37.7404 27.1009C37.1379 26.2543 36.2865 25.6165 35.3047 25.2761C34.323 24.9357 33.2595 24.9096 32.2623 25.2015C31.265 25.4934 30.3834 26.0888 29.7402 26.9048M30.3335 33.3332H13.6668M30.3335 33.3332V29.9998C30.3335 28.9065 30.1235 27.8615 29.7402 26.9048M29.7402 26.9048C29.1212 25.3581 28.0531 24.0323 26.6735 23.0984C25.2939 22.1645 23.6661 21.6653 22.0002 21.6653C20.3342 21.6653 18.7064 22.1645 17.3268 23.0984C15.9472 24.0323 14.8791 25.3581 14.2602 26.9048M13.6668 33.3332H5.3335V29.9998C5.33357 28.9607 5.65739 27.9475 6.25993 27.1009C6.86248 26.2543 7.71381 25.6165 8.69558 25.2761C9.67735 24.9357 10.7408 24.9096 11.7381 25.2015C12.7353 25.4934 13.6169 26.0888 14.2602 26.9048M13.6668 33.3332V29.9998C13.6668 28.9065 13.8768 27.8615 14.2602 26.9048M27.0002 11.6665C27.0002 12.9926 26.4734 14.2644 25.5357 15.202C24.598 16.1397 23.3262 16.6665 22.0002 16.6665C20.6741 16.6665 19.4023 16.1397 18.4646 15.202C17.5269 14.2644 17.0002 12.9926 17.0002 11.6665C17.0002 10.3404 17.5269 9.06865 18.4646 8.13097C19.4023 7.19329 20.6741 6.6665 22.0002 6.6665C23.3262 6.6665 24.598 7.19329 25.5357 8.13097C26.4734 9.06865 27.0002 10.3404 27.0002 11.6665ZM37.0002 16.6665C37.0002 17.5506 36.649 18.3984 36.0239 19.0235C35.3987 19.6486 34.5509 19.9998 33.6668 19.9998C32.7828 19.9998 31.9349 19.6486 31.3098 19.0235C30.6847 18.3984 30.3335 17.5506 30.3335 16.6665C30.3335 15.7824 30.6847 14.9346 31.3098 14.3095C31.9349 13.6844 32.7828 13.3332 33.6668 13.3332C34.5509 13.3332 35.3987 13.6844 36.0239 14.3095C36.649 14.9346 37.0002 15.7824 37.0002 16.6665ZM13.6668 16.6665C13.6668 17.5506 13.3156 18.3984 12.6905 19.0235C12.0654 19.6486 11.2176 19.9998 10.3335 19.9998C9.44944 19.9998 8.60159 19.6486 7.97647 19.0235C7.35135 18.3984 7.00016 17.5506 7.00016 16.6665C7.00016 15.7824 7.35135 14.9346 7.97647 14.3095C8.60159 13.6844 9.44944 13.3332 10.3335 13.3332C11.2176 13.3332 12.0654 13.6844 12.6905 14.3095C13.3156 14.9346 13.6668 15.7824 13.6668 16.6665Z" stroke="white" stroke-width="2" stroke-linecap="round" stroke-linejoin="round"/>
</g>
<defs>
<filter id="filter0_d_132_1835" x="-2" y="0" width="48" height="48" filterUnits="userSpaceOnUse" color-interpolation-filters="sRGB">
<feFlood flood-opacity="0" result="BackgroundImageFix"/>
<feColorMatrix in="SourceAlpha" type="matrix" values="0 0 0 0 0 0 0 0 0 0 0 0 0 0 0 0 0 0 127 0" result="hardAlpha"/>
<feOffset dy="4"/>
<feGaussianBlur stdDeviation="2"/>
<feComposite in2="hardAlpha" operator="out"/>
<feColorMatrix type="matrix" values="0 0 0 0 0 0 0 0 0 0 0 0 0 0 0 0 0 0 0.25 0"/>
<feBlend mode="normal" in2="BackgroundImageFix" result="effect1_dropShadow_132_1835"/>
<feBlend mode="normal" in="SourceGraphic" in2="effect1_dropShadow_132_1835" result="shape"/>
</filter>
</defs>
</svg>
