<svg width="40" height="40" viewBox="0 0 40 40" fill="none" xmlns="http://www.w3.org/2000/svg">
<g clip-path="url(#clip0_136_2134)">
<path d="M35 39.8333L28.895 35.6483L24.455 38.69L20.0117 35.6467L15.5683 38.6867L11.1167 35.6433L5 39.8333V5C5 3.67392 5.52678 2.40215 6.46447 1.46447C7.40215 0.526784 8.67392 0 10 0L30 0C31.3261 0 32.5979 0.526784 33.5355 1.46447C34.4732 2.40215 35 3.67392 35 5V39.8333ZM11.1167 31.6033L15.5667 34.6467L20.0117 31.6033L24.455 34.6467L28.8967 31.6017L31.6667 33.5V5C31.6667 4.55797 31.4911 4.13405 31.1785 3.82149C30.866 3.50893 30.442 3.33333 30 3.33333H10C9.55797 3.33333 9.13405 3.50893 8.82149 3.82149C8.50893 4.13405 8.33333 4.55797 8.33333 5V33.5L11.1167 31.6033Z" fill="white"/>
<path d="M28.3334 13.3333H11.6667V16.6667H28.3334V13.3333Z" fill="#60D66A"/>
<path d="M25.0001 20H11.6667V23.3333H25.0001V20Z" fill="#60D66A"/>
</g>
<defs>
<clipPath id="clip0_136_2134">
<rect width="40" height="40" fill="white"/>
</clipPath>
</defs>
</svg>
