<svg width="26" height="26" viewBox="0 0 26 26" fill="none" xmlns="http://www.w3.org/2000/svg">
<g clip-path="url(#clip0_84_34908)">
<path d="M13.49 16.6808C12.6659 16.6808 11.8603 16.4365 11.1751 15.9786C10.4899 15.5208 9.95586 14.87 9.64049 14.1087C9.32513 13.3473 9.24261 12.5095 9.40338 11.7013C9.56416 10.893 9.96099 10.1506 10.5437 9.56788C11.1264 8.98516 11.8689 8.58833 12.6771 8.42756C13.4854 8.26678 14.3231 8.3493 15.0845 8.66466C15.8459 8.98003 16.4966 9.51408 16.9544 10.1993C17.4123 10.8845 17.6567 11.6901 17.6567 12.5142C17.6567 13.6192 17.2177 14.679 16.4363 15.4604C15.6549 16.2418 14.5951 16.6808 13.49 16.6808ZM13.49 10.4308C13.0779 10.4308 12.6752 10.553 12.3326 10.7819C11.9899 11.0109 11.7229 11.3362 11.5652 11.7169C11.4076 12.0976 11.3663 12.5165 11.4467 12.9206C11.5271 13.3247 11.7255 13.6959 12.0169 13.9873C12.3082 14.2787 12.6794 14.4771 13.0836 14.5575C13.4877 14.6379 13.9066 14.5966 14.2872 14.4389C14.6679 14.2812 14.9933 14.0142 15.2222 13.6716C15.4511 13.329 15.5733 12.9262 15.5733 12.5142C15.5733 11.9616 15.3538 11.4317 14.9631 11.041C14.5724 10.6503 14.0425 10.4308 13.49 10.4308ZM19.74 23.9725C19.74 22.3149 19.0815 20.7252 17.9094 19.5531C16.7373 18.381 15.1476 17.7225 13.49 17.7225C11.8324 17.7225 10.2427 18.381 9.07057 19.5531C7.89847 20.7252 7.23999 22.3149 7.23999 23.9725C7.23999 24.2488 7.34974 24.5137 7.54509 24.7091C7.74044 24.9044 8.00539 25.0142 8.28166 25.0142C8.55792 25.0142 8.82288 24.9044 9.01823 24.7091C9.21358 24.5137 9.32332 24.2488 9.32332 23.9725C9.32332 22.8674 9.76231 21.8076 10.5437 21.0262C11.3251 20.2448 12.3849 19.8058 13.49 19.8058C14.5951 19.8058 15.6549 20.2448 16.4363 21.0262C17.2177 21.8076 17.6567 22.8674 17.6567 23.9725C17.6567 24.2488 17.7664 24.5137 17.9618 24.7091C18.1571 24.9044 18.4221 25.0142 18.6983 25.0142C18.9746 25.0142 19.2395 24.9044 19.4349 24.7091C19.6302 24.5137 19.74 24.2488 19.74 23.9725ZM19.74 8.3475C18.9159 8.3475 18.1103 8.10312 17.4251 7.64529C16.7399 7.18745 16.2059 6.5367 15.8905 5.77534C15.5751 5.01398 15.4926 4.17621 15.6534 3.36795C15.8142 2.5597 16.211 1.81727 16.7937 1.23455C17.3764 0.651832 18.1189 0.254995 18.9271 0.0942234C19.7354 -0.0665484 20.5731 0.0159655 21.3345 0.331331C22.0959 0.646696 22.7466 1.18075 23.2044 1.86595C23.6623 2.55116 23.9067 3.35674 23.9067 4.18083C23.9067 5.2859 23.4677 6.34571 22.6863 7.12711C21.9049 7.90851 20.8451 8.3475 19.74 8.3475ZM19.74 2.0975C19.3279 2.0975 18.9252 2.21968 18.5826 2.4486C18.2399 2.67752 17.9729 3.00289 17.8152 3.38357C17.6576 3.76425 17.6163 4.18314 17.6967 4.58727C17.7771 4.99139 17.9755 5.36261 18.2669 5.65397C18.5582 5.94533 18.9294 6.14375 19.3336 6.22413C19.7377 6.30452 20.1566 6.26326 20.5372 6.10558C20.9179 5.9479 21.2433 5.68087 21.4722 5.33827C21.7011 4.99566 21.8233 4.59287 21.8233 4.18083C21.8233 3.62829 21.6038 3.09839 21.2131 2.70769C20.8224 2.31699 20.2925 2.0975 19.74 2.0975ZM25.99 15.6392C25.9883 13.9821 25.3293 12.3933 24.1576 11.2216C22.9858 10.0498 21.3971 9.39082 19.74 9.38916C19.4637 9.38916 19.1988 9.49891 19.0034 9.69426C18.8081 9.88961 18.6983 10.1546 18.6983 10.4308C18.6983 10.7071 18.8081 10.972 19.0034 11.1674C19.1988 11.3627 19.4637 11.4725 19.74 11.4725C20.8451 11.4725 21.9049 11.9115 22.6863 12.6929C23.4677 13.4743 23.9067 14.5341 23.9067 15.6392C23.9067 15.9154 24.0164 16.1804 24.2118 16.3757C24.4071 16.5711 24.6721 16.6808 24.9483 16.6808C25.2246 16.6808 25.4895 16.5711 25.6849 16.3757C25.8802 16.1804 25.99 15.9154 25.99 15.6392ZM7.23999 8.3475C6.4159 8.3475 5.61032 8.10312 4.92511 7.64529C4.23991 7.18745 3.70586 6.5367 3.39049 5.77534C3.07513 5.01398 2.99261 4.17621 3.15338 3.36795C3.31416 2.5597 3.71099 1.81727 4.29371 1.23455C4.87643 0.651832 5.61886 0.254995 6.42711 0.0942234C7.23537 -0.0665484 8.07315 0.0159655 8.8345 0.331331C9.59586 0.646696 10.2466 1.18075 10.7044 1.86595C11.1623 2.55116 11.4067 3.35674 11.4067 4.18083C11.4067 5.2859 10.9677 6.34571 10.1863 7.12711C9.40487 7.90851 8.34506 8.3475 7.23999 8.3475ZM7.23999 2.0975C6.82795 2.0975 6.42515 2.21968 6.08255 2.4486C5.73995 2.67752 5.47292 3.00289 5.31524 3.38357C5.15756 3.76425 5.1163 4.18314 5.19669 4.58727C5.27707 4.99139 5.47549 5.36261 5.76685 5.65397C6.05821 5.94533 6.42942 6.14375 6.83355 6.22413C7.23768 6.30452 7.65657 6.26326 8.03725 6.10558C8.41793 5.9479 8.7433 5.68087 8.97222 5.33827C9.20114 4.99566 9.32332 4.59287 9.32332 4.18083C9.32332 3.62829 9.10383 3.09839 8.71313 2.70769C8.32243 2.31699 7.79252 2.0975 7.23999 2.0975ZM3.07332 15.6392C3.07332 14.5341 3.51231 13.4743 4.29371 12.6929C5.07511 11.9115 6.13492 11.4725 7.23999 11.4725C7.51626 11.4725 7.78121 11.3627 7.97656 11.1674C8.17191 10.972 8.28166 10.7071 8.28166 10.4308C8.28166 10.1546 8.17191 9.88961 7.97656 9.69426C7.78121 9.49891 7.51626 9.38916 7.23999 9.38916C5.58289 9.39082 3.99414 10.0498 2.8224 11.2216C1.65066 12.3933 0.991645 13.9821 0.98999 15.6392C0.98999 15.9154 1.09974 16.1804 1.29509 16.3757C1.49044 16.5711 1.75539 16.6808 2.03166 16.6808C2.30792 16.6808 2.57288 16.5711 2.76823 16.3757C2.96358 16.1804 3.07332 15.9154 3.07332 15.6392Z" fill="#141B4D"/>
</g>
<defs>
<clipPath id="clip0_84_34908">
<rect width="25" height="25" fill="white" transform="translate(0.98999 0.0141602)"/>
</clipPath>
</defs>
</svg>
